<?xml version="1.0" encoding="UTF-8" standalone="no"?>
<svg
   overflow="visible"
   version="1.1"
   id="svg6"
   sodipodi:docname="b462c942-4958-4317-acc9-8e1db17315cc.xaml"
   xmlns:inkscape="http://www.inkscape.org/namespaces/inkscape"
   xmlns:sodipodi="http://sodipodi.sourceforge.net/DTD/sodipodi-0.dtd"
   xmlns="http://www.w3.org/2000/svg"
   xmlns:svg="http://www.w3.org/2000/svg">
  <defs
     id="defs6" />
  <sodipodi:namedview
     id="namedview6"
     pagecolor="#ffffff"
     bordercolor="#000000"
     borderopacity="0.25"
     inkscape:showpageshadow="2"
     inkscape:pageopacity="0.0"
     inkscape:pagecheckerboard="0"
     inkscape:deskcolor="#d1d1d1" />
  <svg
     id="ADI_Outer_Ring"
     width="351.458"
     height="351.458"
     version="1.1">
    <svg
       version="1.1"
       id="svg5">
      <svg
         version="1.1"
         id="svg4">
        <svg
           version="1.1"
           id="svg3">
          <svg
             version="1.1"
             id="svg2">
            <path
               d="M 310.823,224.401 L 304.162,224.401 C 302.001,224.401 299.994,225.556 298.945,227.445 C 282.044,257.871 254.349,281.475 221.029,293.072 C 218.625,293.909 217.018,296.179 217.018,298.724 L 217.018,315.319 L 216.947,315.319 L 216.925,323.833 C 216.916,327.140 214.233,329.817 210.925,329.817 L 138.253,329.817 C 134.939,329.817 132.253,327.131 132.253,323.817 L 132.253,299.068 C 132.253,296.505 130.625,294.224 128.198,293.401 C 94.413,281.937 66.311,258.176 49.231,227.442 C 48.182,225.554 46.175,224.401 44.015,224.401 L 36.807,224.401 C 33.494,224.401 30.807,221.715 30.807,218.401 L 30.807,100.245 C 30.807,96.931 33.494,94.245 36.807,94.245 L 42.851,94.245 C 45.046,94.245 47.081,93.056 48.115,91.120 C 72.133,46.128 119.525,15.495 174.089,15.495 C 228.652,15.495 276.044,46.128 300.062,91.120 C 301.096,93.056 303.131,94.245 305.326,94.245 L 310.823,94.245 C 314.137,94.245 316.823,96.931 316.823,100.245 L 316.823,218.401 C 316.823,221.715 314.137,224.401 310.823,224.401 Z M 0.729,0.729 L 0.729,350.729 L 350.729,350.729 L 350.729,0.729 L 0.729,0.729 Z"
               fill-rule="nonzero"
               fill="#222222"
               stroke="#000000"
               stroke-width="1.5"
               stroke-miterlimit="1.0"
               id="path1" />
            <path
               d="M 11.234,157.758 L 29.736,157.758"
               fill-rule="nonzero"
               fill="none"
               stroke="#ffffff"
               stroke-width="5.8"
               stroke-miterlimit="1.0"
               id="path2" />
          </svg>
        </svg>
      </svg>
    </svg>
  </svg>
</svg>
