<?xml version="1.0" encoding="utf-8"?>
<!-- Generator: Adobe Illustrator 12.0.0, SVG Export Plug-In . SVG Version: 6.00 Build 51448)  -->
<!DOCTYPE svg PUBLIC "-//W3C//DTD SVG 1.1//EN" "http://www.w3.org/Graphics/SVG/1.1/DTD/svg11.dtd" [
	<!ENTITY ns_svg "http://www.w3.org/2000/svg">
	<!ENTITY ns_xlink "http://www.w3.org/1999/xlink">
]>
<svg  version="1.1"
	 id="svg16" xmlns:svg="http://www.w3.org/2000/svg" xmlns:inkscape="http://www.inkscape.org/namespaces/inkscape" sodipodi:docname="214a26b9-078c-4eae-8d83-678dc0bc9570.xaml" xmlns:sodipodi="http://sodipodi.sourceforge.net/DTD/sodipodi-0.dtd"
	 xmlns="&ns_svg;" xmlns:xlink="&ns_xlink;" width="595.275" height="841.891" viewBox="0 0 595.275 841.891"
	 overflow="visible" enable-background="new 0 0 595.275 841.891" xml:space="preserve">
<sodipodi:namedview  inkscape:deskcolor="#d1d1d1" inkscape:pageopacity="0.0" borderopacity="0.25" bordercolor="#000000" pagecolor="#ffffff" inkscape:showpageshadow="2" inkscape:pagecheckerboard="0" id="namedview19">
	</sodipodi:namedview>
<g>
	<path id="path1" fill="#2F2F2F" stroke="#EBEBEB" stroke-width="0.7" stroke-miterlimit="1" d="M147.751,252.052
		c-60.752,0-110-49.249-110-110c0-60.752,49.248-110,110-110c60.751,0,110,49.248,110,110
		C257.751,202.803,208.502,252.052,147.751,252.052z M272.001,77.488C248.662,32.66,201.785,2.052,147.751,2.052
		c-54.035,0-100.912,30.608-124.25,75.437H1.251v133h24.343c16.299,29.017,42.645,51.639,74.313,63.156v32.844h94V274.27
		c32.249-11.255,59.111-33.979,75.719-63.281h18.375v-133.5H272.001z"/>
	<path id="path2" fill="none" stroke="#FFFFFF" stroke-width="2" stroke-miterlimit="1" d="M34.762,142.058h-17.5"/>
	<path id="path3" fill="none" stroke="#FFFFFF" stroke-width="2" stroke-miterlimit="1" d="M277.762,142.058h-17.5"/>
	<path id="path4" fill="#FFFFFF" stroke="#000000" stroke-miterlimit="1" d="M113.961,269.002h67v14h-67V269.002z"/>
	<path id="path5" fill="#F3F3F3" stroke="#000000" stroke-miterlimit="1" d="M163.461,285.746v6h12v-6H163.461z M119.461,291.746h12
		v-6h-12V291.746z M141.461,291.746h12v-6h-12V291.746z"/>
	<path id="path6" fill="#FFFFFF" stroke="#000000" stroke-width="1.4" stroke-miterlimit="1" d="M259.399,139.476v4h18v-4H259.399z"
		/>
	<path id="path7" fill="#FFFFFF" stroke="#000000" stroke-width="1.4" stroke-miterlimit="1" d="M259.063,74.626l-15.588,9l2,3.464
		l15.588-9L259.063,74.626z"/>
	<path id="path8" fill="#FFFFFF" stroke="#000000" stroke-width="1.4" stroke-miterlimit="1" d="M201.759,43.223l3.464,2l9-15.59
		l-3.464-2L201.759,43.223z"/>
	<path id="path9" fill="#FFFFFF" stroke="#000000" stroke-width="1.4" stroke-miterlimit="1" d="M164.937,30.482l3.939,0.693
		l1.737-9.848l-3.94-0.694L164.937,30.482z"/>
	<path id="path10" fill="#FFFFFF" stroke="#000000" stroke-width="1.4" stroke-miterlimit="1" d="M183.905,35.241l3.759,1.368
		l3.42-9.397l-3.759-1.368L183.905,35.241z"/>
	<path id="path11" fill="#FFFFFF" stroke="#000000" stroke-width="1.4" stroke-miterlimit="1" d="M124.241,21.256l1.737,9.849
		l3.939-0.695l-1.736-9.848L124.241,21.256z"/>
	<path id="path12" fill="#FFFFFF" stroke="#000000" stroke-width="1.4" stroke-miterlimit="1" d="M103.75,27.07l3.42,9.396
		l3.759-1.368l-3.42-9.396L103.75,27.07z"/>
	<path id="path13" fill="#FFFFFF" stroke="#000000" stroke-width="1.4" stroke-miterlimit="1" d="M80.581,29.425l9,15.589l3.464-2
		l-9-15.589L80.581,29.425z"/>
	<path id="path14" fill="#FFFFFF" stroke="#000000" stroke-width="1.4" stroke-miterlimit="1" d="M33.588,77.729l15.588,9l2-3.464
		l-15.588-9L33.588,77.729z"/>
	<path id="path15" fill="#FFFFFF" stroke="#000000" stroke-width="1.4" stroke-miterlimit="1" d="M17.043,143.059h18v-4h-18V143.059
		z"/>
	<path id="path16" fill="#FFFFFF" stroke="#000000" stroke-miterlimit="1" d="M147.222,6.267h8l-4,11.41l-4,11.412l-4-11.412
		l-4-11.41H147.222z"/>
</g>
</svg>
